<?xml version="1.0" standalone="no"?>
<!DOCTYPE svg PUBLIC "-//W3C//DTD SVG 20010904//EN"
 "http://www.w3.org/TR/2001/REC-SVG-20010904/DTD/svg10.dtd">
<svg version="1.0" xmlns="http://www.w3.org/2000/svg"
 width="832.000000pt" height="832.000000pt" viewBox="0 0 832.000000 832.000000"
 preserveAspectRatio="xMidYMid meet">

<g transform="translate(0.000000,832.000000) scale(0.100000,-0.100000)"
fill="#000000" stroke="none">
<path d="M0 4160 l0 -4160 4160 0 4160 0 0 4160 0 4160 -4160 0 -4160 0 0
-4160z m1664 2131 c44 -12 113 -38 154 -58 74 -36 207 -132 214 -154 2 -6 35
20 73 59 119 118 260 172 452 172 158 0 294 -39 382 -108 20 -16 22 -22 11
-41 -8 -16 -17 -20 -28 -16 -35 15 -159 17 -198 5 -54 -18 -128 -91 -154 -153
-35 -80 -39 -227 -10 -354 20 -88 856 -2600 878 -2640 7 -12 21 21 56 128 26
79 110 335 187 568 76 234 138 426 136 428 -1 1 -47 49 -103 105 -201 206
-346 379 -458 546 -235 353 -323 723 -245 1035 59 236 193 391 409 473 69 26
86 28 215 29 121 0 150 -3 210 -23 188 -63 329 -198 412 -395 18 -43 40 -104
49 -135 8 -31 18 -64 20 -72 3 -8 26 46 50 120 91 270 175 399 307 464 105 52
299 45 420 -15 56 -28 107 -67 107 -82 -1 -32 -16 -39 -61 -27 -161 44 -291
-30 -341 -194 -18 -58 -20 -85 -15 -185 7 -153 6 -150 337 -1096 21 -60 59
-168 83 -240 25 -71 59 -168 75 -215 17 -47 74 -211 127 -365 298 -862 317
-915 325 -915 3 0 80 224 170 498 l165 497 0 105 c0 118 -13 155 -82 231 -23
25 -33 43 -27 49 6 6 36 17 67 25 85 22 128 48 184 109 62 67 97 148 159 363
85 297 125 588 105 779 -13 137 -32 210 -77 302 -81 166 -232 255 -399 237
-126 -13 -242 -94 -293 -203 -22 -47 -27 -71 -27 -137 0 -88 13 -121 64 -172
35 -36 107 -58 155 -49 44 8 92 47 100 82 6 22 11 25 34 19 101 -25 160 -123
149 -246 -9 -104 -79 -191 -180 -225 -69 -23 -185 -15 -252 17 -137 65 -225
231 -225 427 0 310 164 539 455 638 107 36 302 45 421 19 113 -24 246 -91 323
-162 l64 -59 51 52 c70 69 211 139 326 160 99 19 267 14 341 -10 88 -27 199
-95 199 -120 -1 -33 -16 -38 -70 -22 -72 22 -145 20 -221 -4 -84 -27 -115 -44
-194 -110 -192 -158 -381 -490 -572 -1000 -121 -325 -150 -440 -137 -540 8
-60 26 -88 92 -140 48 -39 112 -117 112 -137 0 -5 -34 -14 -75 -20 -91 -15
-155 -46 -228 -113 -57 -52 -142 -175 -178 -258 -35 -77 -380 -1122 -395
-1192 -28 -131 -13 -283 36 -381 26 -49 88 -111 136 -134 55 -26 132 -30 199
-11 47 14 59 15 66 4 17 -25 8 -39 -43 -72 -153 -97 -347 -116 -542 -55 -84
27 -202 103 -247 158 l-33 41 -55 -60 c-108 -117 -247 -175 -416 -174 -109 0
-181 14 -264 51 -77 34 -121 69 -121 98 0 32 14 39 47 22 88 -45 200 -24 273
52 59 60 83 133 82 245 -1 140 4 124 -347 1136 -114 327 -250 722 -303 877
-53 156 -99 283 -102 283 -5 0 -173 -517 -194 -594 -9 -33 -6 -38 66 -123 136
-160 246 -350 285 -494 13 -46 18 -100 17 -189 0 -157 -21 -218 -98 -295 -139
-139 -373 -83 -406 96 -11 57 -3 93 19 83 9 -4 39 -8 66 -11 65 -5 118 24 162
90 81 121 69 322 -32 515 -46 89 -109 182 -123 182 -9 0 -405 -1200 -439
-1329 -32 -124 -36 -281 -10 -358 42 -121 128 -186 247 -186 38 0 81 6 102 16
36 15 38 15 49 -5 9 -17 6 -25 -16 -48 -64 -67 -211 -113 -360 -113 -166 -1
-289 49 -404 161 l-64 62 -61 -58 c-103 -99 -200 -143 -354 -162 -142 -18
-302 18 -407 90 -43 30 -53 51 -37 78 7 10 16 8 43 -5 51 -27 171 -24 226 5
136 72 213 260 183 452 -20 133 -114 429 -318 1005 -110 311 -163 409 -275
512 -80 73 -207 121 -283 107 -29 -5 -34 -3 -34 13 0 35 56 99 128 147 54 36
73 55 86 86 21 53 20 127 -3 225 -24 100 -303 915 -360 1049 -112 268 -232
395 -403 426 -153 29 -332 -58 -405 -197 -80 -149 -58 -329 50 -417 119 -97
292 -54 314 79 5 34 7 36 37 30 81 -17 157 -90 186 -179 19 -59 8 -171 -23
-231 -64 -125 -182 -183 -358 -173 -187 11 -322 119 -404 323 -38 94 -47 271
-20 391 61 277 269 465 596 539 99 22 379 14 483 -14z"/>
<path d="M3338 6113 c-107 -40 -186 -144 -195 -257 -9 -104 27 -185 98 -221
41 -22 117 -19 158 6 33 20 34 20 53 2 19 -19 19 -21 -4 -99 -32 -110 -32
-332 0 -480 46 -216 143 -438 278 -639 92 -137 132 -184 138 -164 3 8 59 178
125 379 l121 366 -94 274 c-127 371 -148 427 -211 557 -95 195 -200 282 -350
290 -50 2 -84 -2 -117 -14z"/>
<path d="M2107 5801 c-21 -103 -2 -262 54 -456 47 -164 598 -1798 748 -2224
91 -256 135 -426 157 -606 l7 -60 9 40 c24 100 -4 319 -66 520 -21 70 -486
1453 -734 2185 -105 307 -137 423 -155 546 -11 76 -14 84 -20 55z"/>
<path d="M4435 5574 c-8 -84 7 -203 42 -339 25 -94 167 -519 403 -1205 56
-162 132 -385 170 -495 37 -110 98 -285 135 -390 124 -351 165 -497 181 -640
l7 -70 10 40 c15 67 1 249 -28 360 -23 89 -182 574 -301 915 -23 69 -101 296
-173 505 -71 209 -169 490 -216 625 -140 395 -187 555 -201 676 -10 89 -21 96
-29 18z"/>
</g>
</svg>
